<svg width="33" height="14" viewBox="0 0 33 14" fill="none" xmlns="http://www.w3.org/2000/svg">
<path fill-rule="evenodd" clip-rule="evenodd" d="M5.8894 1.77771C5.51169 2.24346 4.90735 2.61081 4.30302 2.55833C4.22747 1.92858 4.52335 1.25948 4.86958 0.846216C5.24729 0.36735 5.90829 0.0262392 6.44338 0C6.50633 0.655981 6.26082 1.29884 5.8894 1.77771ZM6.43629 2.68294C5.90388 2.65101 5.41807 2.84979 5.02568 3.01035C4.77316 3.11367 4.55933 3.20117 4.39665 3.20117C4.21408 3.20117 3.99142 3.10899 3.74142 3.0055C3.41384 2.8699 3.03932 2.71486 2.64658 2.7223C1.74637 2.73542 0.90911 3.26677 0.449561 4.11298C-0.494717 5.80541 0.204049 8.31126 1.11685 9.68882C1.56381 10.371 2.0989 11.1189 2.80396 11.0926C3.11415 11.0804 3.33728 10.9818 3.56819 10.8797C3.83404 10.7621 4.11021 10.64 4.54144 10.64C4.95771 10.64 5.2218 10.7589 5.47532 10.8731C5.71637 10.9816 5.94785 11.0859 6.2915 11.0795C7.02174 11.0664 7.48129 10.3973 7.92825 9.71506C8.41059 8.98285 8.62255 8.26825 8.65472 8.15981L8.65849 8.14726C8.65772 8.14646 8.65176 8.14361 8.64125 8.1386C8.48001 8.06168 7.2476 7.47377 7.23578 5.89725C7.22391 4.57399 8.21329 3.90354 8.36904 3.798C8.37852 3.79158 8.38491 3.78725 8.3878 3.78499C7.75828 2.81414 6.77623 2.70918 6.43629 2.68294ZM11.493 11.0074V0.780676H15.1757C17.0768 0.780676 18.4051 2.14512 18.4051 4.1393C18.4051 6.13348 17.0516 7.51104 15.1253 7.51104H13.0164V11.0074H11.493ZM13.013 2.11875H14.7693C16.0913 2.11875 16.8468 2.85344 16.8468 4.14573C16.8468 5.43801 16.0913 6.17927 14.763 6.17927H13.013V2.11875ZM23.4349 9.78063C23.032 10.5809 22.1444 11.086 21.1875 11.086C19.7711 11.086 18.7827 10.207 18.7827 8.88193C18.7827 7.56997 19.7396 6.8156 21.5086 6.70408L23.4097 6.586V6.02186C23.4097 5.18876 22.8872 4.73614 21.9555 4.73614C21.1875 4.73614 20.6272 5.14941 20.5139 5.77915H19.1416C19.1856 4.45407 20.3817 3.48977 21.9996 3.48977C23.7434 3.48977 24.8765 4.44095 24.8765 5.9169V11.0073H23.4664V9.78063H23.4349ZM21.5948 9.87258C20.7827 9.87258 20.2665 9.46588 20.2665 8.84269C20.2665 8.19983 20.7639 7.82592 21.7144 7.76689L23.4078 7.65537V8.23263C23.4078 9.19036 22.6272 9.87258 21.5948 9.87258ZM29.5532 11.4075C28.9425 13.1983 28.2438 13.7887 26.7581 13.7887C26.6448 13.7887 26.2671 13.7755 26.179 13.7493V12.5226C26.2734 12.5357 26.5063 12.5489 26.6259 12.5489C27.2995 12.5489 27.6772 12.2537 27.9101 11.4862L28.0486 11.0335L25.4676 3.58817H27.0603L28.8544 9.62975H28.8859L30.68 3.58817H32.2286L29.5532 11.4075Z" fill="white"/>
</svg>
