<svg width="40" height="19" viewBox="0 0 40 19" fill="none" xmlns="http://www.w3.org/2000/svg">
<path d="M14.5552 18.7646L39.7022 11.1543V14.794C39.7022 16.9869 37.9246 18.7646 35.7317 18.7646H14.5552Z" fill="#FD6020"/>
<path fill-rule="evenodd" clip-rule="evenodd" d="M34.9295 0.1467C36.313 0.1467 37.0739 0.786682 37.0739 1.99554C37.143 2.91996 36.5205 3.70216 35.6904 3.84438L37.5581 6.47542H36.1054L34.5144 3.91549H34.3761V6.47542H33.2001V0.1467H34.9295ZM34.3744 3.0622H34.7203C35.4812 3.0622 35.8271 2.70665 35.8271 2.06667C35.8271 1.49779 35.4812 1.14225 34.7203 1.14225H34.3744V3.0622ZM29.121 6.47542H32.4413V5.40878H30.2969V3.70216H32.3722V2.63552H30.2969V1.21334H32.4413V0.1467H29.121V6.47542ZM25.66 4.41325L24.069 0.1467H22.8239L25.3833 6.61764H26.0059L28.5653 0.1467H27.3202L25.66 4.41325ZM11.6204 3.34663C11.6204 5.12436 13.0039 6.61765 14.7332 6.61765C15.2866 6.61765 15.7708 6.47543 16.2551 6.2621V4.83992C15.9092 5.26657 15.425 5.55101 14.8716 5.55101C13.7648 5.55101 12.8655 4.6977 12.8655 3.55995V3.41773C12.7964 2.27999 13.6956 1.28446 14.8024 1.21335C15.3558 1.21335 15.9092 1.49779 16.2551 1.92444V0.502258C15.84 0.217821 15.2866 0.146712 14.8024 0.146712C13.0039 0.00449382 11.6204 1.49779 11.6204 3.34663ZM9.47439 2.56442C8.78265 2.27999 8.57512 2.13777 8.57512 1.78222C8.6443 1.35557 8.99017 1.00002 9.40521 1.07113C9.75108 1.07113 10.097 1.28446 10.3736 1.56889L10.9962 0.715584C10.512 0.288929 9.88943 0.00449174 9.26686 0.00449174C8.29843 -0.0666175 7.46834 0.715584 7.39917 1.71111V1.78222C7.39917 2.63553 7.74504 3.1333 8.85182 3.48884C9.12852 3.55995 9.40521 3.70217 9.68191 3.84439C9.88943 3.98661 10.0278 4.19993 10.0278 4.48437C10.0278 4.98214 9.61273 5.40879 9.19769 5.40879H9.12852C8.57512 5.40879 8.09091 5.05325 7.88339 4.55548L7.12247 5.33768C7.53752 6.11988 8.3676 6.54654 9.19769 6.54654C10.3045 6.61765 11.2037 5.76434 11.2729 4.62659V4.41326C11.2037 3.55995 10.8579 3.1333 9.47439 2.56442ZM5.46289 6.47542H6.63885V0.1467H5.46289V6.47542ZM0 0.146692H1.72935H2.07522C3.73539 0.217801 5.04969 1.63999 4.98052 3.34661C4.98052 4.27103 4.56548 5.12434 3.87374 5.76432C3.25117 6.26208 2.49026 6.54652 1.72935 6.47541H0V0.146692ZM1.51947 5.40883C2.07286 5.47994 2.69542 5.26661 3.11047 4.91107C3.52551 4.48441 3.73303 3.91554 3.73303 3.27556C3.73303 2.70668 3.52551 2.13781 3.11047 1.71115C2.69542 1.35561 2.07286 1.14228 1.51947 1.21339H1.1736V5.40883H1.51947Z" fill="white"/>
<path fill-rule="evenodd" clip-rule="evenodd" d="M19.7792 0C18.0498 0 16.5972 1.42218 16.5972 3.27102C16.5972 5.04875 17.9806 6.54205 19.7792 6.61316C21.5777 6.68427 22.9612 5.19097 23.0303 3.34213C22.9612 1.49329 21.5777 0 19.7792 0V0Z" fill="#FD6020"/>
</svg>
