<svg width="30" height="18" viewBox="0 0 30 18" fill="none" xmlns="http://www.w3.org/2000/svg">
<path fill-rule="evenodd" clip-rule="evenodd" d="M14.7958 15.6169C13.2286 16.9378 11.1958 17.7353 8.97444 17.7353C4.01799 17.7353 0 13.7651 0 8.86765C0 3.97018 4.01799 0 8.97444 0C11.1958 0 13.2287 0.797462 14.7958 2.11846C16.3629 0.797487 18.3958 4.28367e-05 20.6171 4.28367e-05C25.5736 4.28367e-05 29.5916 3.97022 29.5916 8.86769C29.5916 13.7652 25.5736 17.7353 20.6171 17.7353C18.3958 17.7353 16.3629 16.9379 14.7958 15.6169Z" fill="#ED0006"/>
<path fill-rule="evenodd" clip-rule="evenodd" d="M14.7954 15.6168C16.7249 13.9903 17.9484 11.5701 17.9484 8.86765C17.9484 6.16515 16.7249 3.74502 14.7954 2.11853C16.3626 0.797492 18.3955 0 20.6169 0C25.5733 0 29.5913 3.97018 29.5913 8.86765C29.5913 13.7651 25.5733 17.7353 20.6169 17.7353C18.3955 17.7353 16.3626 16.9378 14.7954 15.6168Z" fill="#F9A000"/>
<path fill-rule="evenodd" clip-rule="evenodd" d="M14.7936 15.6169C16.7231 13.9904 17.9466 11.5703 17.9466 8.86777C17.9466 6.16527 16.7231 3.74514 14.7936 2.11865C12.8641 3.74514 11.6406 6.16527 11.6406 8.86777C11.6406 11.5703 12.8641 13.9904 14.7936 15.6169Z" fill="#FF5E00"/>
</svg>
