<svg width="32" height="11" viewBox="0 0 32 11" fill="none" xmlns="http://www.w3.org/2000/svg">
<path fill-rule="evenodd" clip-rule="evenodd" d="M7.87533 10.2683H5.1492L3.10494 2.23995C3.00791 1.87064 2.80189 1.54416 2.49884 1.39028C1.74254 1.00358 0.909152 0.695828 0 0.540613V0.231521H4.39158C4.99768 0.231521 5.45226 0.695828 5.52802 1.23507L6.5887 7.02619L9.31349 0.231521H11.9639L7.87533 10.2683ZM13.4782 10.2683H10.9036L13.0236 0.231521H15.5982L13.4782 10.2683ZM18.9285 3.01197C19.0043 2.4714 19.4589 2.16231 19.9892 2.16231C20.8226 2.0847 21.7304 2.23991 22.488 2.62527L22.9426 0.464307C22.185 0.155215 21.3516 0 20.5953 0C18.0965 0 16.2781 1.39024 16.2781 3.31973C16.2781 4.78758 17.5661 5.5583 18.4753 6.02261C19.4589 6.48558 19.8377 6.79467 19.7619 7.25764C19.7619 7.95209 19.0043 8.26118 18.248 8.26118C17.3388 8.26118 16.4297 8.0297 15.5976 7.643L15.143 9.80531C16.0522 10.1907 17.0358 10.3459 17.9449 10.3459C20.7468 10.4222 22.488 9.03325 22.488 6.94855C22.488 4.32327 18.9285 4.1694 18.9285 3.01197ZM31.4983 10.2683L29.4541 0.231521H27.2583C26.8037 0.231521 26.3491 0.540613 26.1976 1.00358L22.4121 10.2683H25.0625L25.5915 8.8018H28.8479L29.151 10.2683H31.4983ZM27.6379 2.93432L28.3941 6.71702H26.2741L27.6379 2.93432Z" fill="white"/>
</svg>
